<svg xmlns="http://www.w3.org/2000/svg" viewBox="0 0 120 120" width="120" height="120" role="img" aria-label="うどまる 達成表情（バッジ獲得）">
  <title>うどまる - 達成</title>
  <ellipse cx="60" cy="86" rx="42" ry="26" fill="#BA7517"/>
  <ellipse cx="60" cy="80" rx="42" ry="22" fill="#FAC775"/>
  <ellipse cx="60" cy="78" rx="36" ry="17" fill="#FAF6EE"/>
  <path d="M40 78 Q44 56 50 78" stroke="#EADBB8" stroke-width="5" fill="none" stroke-linecap="round"/>
  <path d="M70 78 Q76 54 80 78" stroke="#EADBB8" stroke-width="5" fill="none" stroke-linecap="round"/>
  <circle cx="60" cy="60" r="22" fill="#FAF6EE" stroke="#EADBB8" stroke-width="2"/>
  <path d="M48 56 Q52 52 56 56" stroke="#444441" stroke-width="2.4" fill="none" stroke-linecap="round"/>
  <path d="M64 56 Q68 52 72 56" stroke="#444441" stroke-width="2.4" fill="none" stroke-linecap="round"/>
  <path d="M53 64 Q60 71 67 64" stroke="#444441" stroke-width="2.6" fill="none" stroke-linecap="round"/>
  <circle cx="80" cy="84" r="13" fill="#5DCAA5"/>
  <path d="M75 84 l3.5 3.5 L86 80" stroke="#FFFFFF" stroke-width="2.6" fill="none" stroke-linecap="round" stroke-linejoin="round"/>
  <path d="M28 30 l2 5 5 2 -5 2 -2 5 -2-5 -5-2 5-2 z" fill="#FAC775"/>
  <path d="M92 26 l1.5 3.5 3.5 1.5 -3.5 1.5 -1.5 3.5 -1.5-3.5 -3.5-1.5 3.5-1.5 z" fill="#FAC775"/>
</svg>
