<svg xmlns="http://www.w3.org/2000/svg" viewBox="0 0 120 120" width="120" height="120" role="img" aria-label="うどまる 満腹表情">
  <title>うどまる - 満腹</title>
  <ellipse cx="60" cy="86" rx="42" ry="26" fill="#BA7517"/>
  <ellipse cx="60" cy="80" rx="42" ry="22" fill="#FAC775"/>
  <ellipse cx="60" cy="78" rx="36" ry="17" fill="#FAF6EE"/>
  <path d="M40 78 Q44 58 50 78" stroke="#EADBB8" stroke-width="5" fill="none" stroke-linecap="round"/>
  <path d="M70 78 Q76 56 80 78" stroke="#EADBB8" stroke-width="5" fill="none" stroke-linecap="round"/>
  <circle cx="60" cy="61" r="23" fill="#FAF6EE" stroke="#EADBB8" stroke-width="2"/>
  <path d="M47 58 Q52 54 57 58" stroke="#444441" stroke-width="2.2" fill="none" stroke-linecap="round"/>
  <path d="M63 58 Q68 54 73 58" stroke="#444441" stroke-width="2.2" fill="none" stroke-linecap="round"/>
  <ellipse cx="46" cy="67" rx="5" ry="3" fill="#F0997B" opacity="0.65"/>
  <ellipse cx="74" cy="67" rx="5" ry="3" fill="#F0997B" opacity="0.65"/>
  <ellipse cx="60" cy="68" rx="5" ry="3.4" fill="#444441"/>
  <path d="M86 34 q5 0 0 5 q5 0 0 5" stroke="#888780" stroke-width="2" fill="none" stroke-linecap="round"/>
</svg>
