<svg xmlns="http://www.w3.org/2000/svg" viewBox="0 0 120 120" width="120" height="120" role="img" aria-label="うどまる 夏ひやかけ表情">
  <title>うどまる - 夏（ひやかけ）</title>
  <ellipse cx="60" cy="86" rx="42" ry="26" fill="#185FA5"/>
  <ellipse cx="60" cy="80" rx="42" ry="22" fill="#85B7EB"/>
  <ellipse cx="60" cy="78" rx="36" ry="17" fill="#E6F1FB"/>
  <path d="M40 78 Q44 58 50 78" stroke="#B5D4F4" stroke-width="5" fill="none" stroke-linecap="round"/>
  <path d="M70 78 Q76 56 80 78" stroke="#B5D4F4" stroke-width="5" fill="none" stroke-linecap="round"/>
  <rect x="46" y="70" width="9" height="9" rx="2" fill="#FFFFFF" opacity="0.85" transform="rotate(12 50 74)"/>
  <rect x="66" y="71" width="8" height="8" rx="2" fill="#FFFFFF" opacity="0.85" transform="rotate(-10 70 75)"/>
  <circle cx="60" cy="60" r="22" fill="#FAF6EE" stroke="#B5D4F4" stroke-width="2"/>
  <path d="M48 58 Q52 54 56 58" stroke="#444441" stroke-width="2.4" fill="none" stroke-linecap="round"/>
  <path d="M64 58 Q68 54 72 58" stroke="#444441" stroke-width="2.4" fill="none" stroke-linecap="round"/>
  <path d="M54 66 Q60 71 66 66" stroke="#444441" stroke-width="2.4" fill="none" stroke-linecap="round"/>
  <path d="M78 44 Q81 50 78 53 Q75 50 78 44 Z" fill="#378ADD"/>
</svg>
